<svg width="661" height="654" viewBox="0 0 781 774" fill="none" xmlns="http://www.w3.org/2000/svg">
<path d="M109 85L181.5 408L612 136L701 648.5" stroke="#ECECEC" stroke-width="2"/>
<path d="M183 159.143C183 131.575 183 117.79 188.784 109.881C193.829 102.983 201.576 98.5634 210.081 97.7319C219.834 96.7784 231.699 103.794 255.43 117.825L677.43 367.339C686.022 372.419 690.318 374.959 693.439 378.477C696.202 381.59 698.287 385.244 699.56 389.207C701 393.685 701 398.675 701 408.657V696C701 712.802 701 721.202 697.73 727.62C694.854 733.265 690.265 737.854 684.62 740.73C678.202 744 669.802 744 653 744H231C214.198 744 205.798 744 199.38 740.73C193.735 737.854 189.146 733.265 186.27 727.62C183 721.202 183 712.802 183 696V159.143Z" fill="url(#paint0_linear_28_2186)"/>
<g filter="url(#filter0_d_28_2186)">
<rect x="143" y="368" width="80" height="80" rx="10" fill="white"/>
</g>
<path d="M184.569 429.849C183.5 429.849 182.862 428.79 183.192 427.883L189.468 410.624C189.745 409.864 190.585 409.471 191.346 409.748C192.106 410.024 192.498 410.865 192.221 411.625L185.946 428.884C185.729 429.479 185.167 429.849 184.569 429.849Z" fill="#3AB4FB"/>
<path d="M200.259 429.849C199.663 429.849 199.102 429.481 198.884 428.889L192.545 411.629C192.266 410.87 192.656 410.028 193.415 409.75C194.174 409.47 195.016 409.86 195.295 410.619L201.634 427.878C201.991 428.85 201.259 429.849 200.259 429.849Z" fill="#1D9CFD"/>
<path d="M203.397 386.125H181.431C178.889 386.125 176.828 388.186 176.828 390.727V407.987C176.828 410.529 178.889 412.59 181.431 412.59H203.397C205.939 412.59 208 410.529 208 407.987V390.727C208 388.186 205.939 386.125 203.397 386.125Z" fill="#EFF6FE"/>
<path d="M203.398 386.125H192.222V412.59H203.398C205.939 412.59 208 410.529 208 407.987V390.727C208 388.186 205.939 386.125 203.398 386.125Z" fill="#D9E4EF"/>
<path d="M173.69 395.435C173.69 398.959 170.833 401.815 167.31 401.815C163.786 401.815 160.93 398.959 160.93 395.435C160.93 391.911 163.786 389.055 167.31 389.055C170.833 389.055 173.69 391.911 173.69 395.435Z" fill="#FFCFBE"/>
<path d="M181.56 410.867C180.837 410.505 180.544 409.625 180.905 408.901L184.828 401.056C185.19 400.332 186.07 400.039 186.793 400.401C187.517 400.763 187.81 401.643 187.448 402.366L183.526 410.211C183.163 410.936 182.283 411.228 181.56 410.867Z" fill="#FFB826"/>
<path d="M173.691 395.436C173.691 398.959 170.834 401.816 167.31 401.816V389.055C170.834 389.055 173.691 391.911 173.691 395.436Z" fill="#F9BCAA"/>
<path d="M200.259 394.547H184.569C183.76 394.547 183.104 393.891 183.104 393.082C183.104 392.273 183.76 391.617 184.569 391.617H200.259C201.068 391.617 201.724 392.273 201.724 393.082C201.724 393.891 201.068 394.547 200.259 394.547Z" fill="#3AB4FB"/>
<path d="M200.259 400.822H193.687C192.877 400.822 192.222 400.167 192.222 399.357C192.222 398.548 192.877 397.893 193.687 397.893H200.259C201.068 397.893 201.724 398.548 201.724 399.357C201.724 400.167 201.068 400.822 200.259 400.822Z" fill="#1D9CFD"/>
<path d="M200.259 407.099H193.687C192.877 407.099 192.222 406.443 192.222 405.634C192.222 404.825 192.877 404.169 193.687 404.169H200.259C201.068 404.169 201.724 404.825 201.724 405.634C201.724 406.443 201.068 407.099 200.259 407.099Z" fill="#1D9CFD"/>
<path d="M200.259 391.617H192.222V394.547H200.259C201.068 394.547 201.724 393.891 201.724 393.082C201.724 392.273 201.068 391.617 200.259 391.617Z" fill="#1D9CFD"/>
<path d="M172.017 429.849H162.603C161.794 429.849 161.138 429.194 161.138 428.384V420.196C159.316 419.583 158 417.859 158 415.832V411.125C158 408.635 158.969 406.296 160.729 404.541C162.456 402.81 164.855 401.815 167.31 401.815H168.604C171.174 401.815 172.68 402.757 174.791 403.806C177.115 404.962 180.015 406.404 181.864 407.325C183.571 408.173 184.388 410.162 183.774 411.962C183.772 411.967 183.77 411.973 183.768 411.979C183.398 413.072 182.57 413.953 181.494 414.396C180.416 414.835 179.207 414.788 178.171 414.27C176.695 413.532 174.87 412.62 173.482 411.926V428.384C173.482 429.194 172.826 429.849 172.017 429.849Z" fill="#FF7579"/>
<path d="M181.865 407.325C180.015 406.404 177.115 404.962 174.791 403.806C172.68 402.757 171.174 401.815 168.605 401.815H167.31C167.31 401.815 167.31 401.815 167.31 401.815V429.849H172.017C172.826 429.849 173.482 429.194 173.482 428.384V411.926C174.871 412.62 176.695 413.532 178.172 414.27C179.206 414.788 180.416 414.834 181.494 414.396C182.57 413.953 183.398 413.072 183.768 411.979C183.77 411.973 183.772 411.967 183.774 411.961C184.388 410.162 183.571 408.173 181.865 407.325Z" fill="#FE4A60"/>
<g filter="url(#filter1_d_28_2186)">
<rect x="568" y="104" width="80" height="80" rx="10" fill="white"/>
</g>
<g clip-path="url(#clip0_28_2186)">
<path d="M609.896 127.747C609.503 127.747 609.159 127.482 609.06 127.101C608.962 126.72 609.133 126.321 609.478 126.13C616.067 122.475 624.117 119.751 626.944 123.078C627.253 123.441 627.21 123.986 626.847 124.296C626.485 124.605 625.94 124.562 625.63 124.199C624.178 122.493 618.452 123.127 610.314 127.642C610.186 127.711 610.042 127.747 609.896 127.747V127.747Z" fill="#E57E25"/>
<path d="M589.25 150.698C588.896 150.698 588.579 150.483 588.448 150.154C587.268 147.184 589.941 142.076 595.603 136.486C595.947 136.187 596.464 136.207 596.784 136.532C597.103 136.857 597.115 137.374 596.81 137.713C591.13 143.325 589.322 147.685 590.05 149.517C590.156 149.782 590.123 150.083 589.963 150.319C589.802 150.556 589.535 150.698 589.25 150.698V150.698Z" fill="#E57E25"/>
<path d="M606.327 127.872C606.179 127.872 606.035 127.834 605.906 127.762C597.528 123.066 592.036 122.561 590.475 124.076C590.134 124.409 589.588 124.403 589.254 124.062C588.921 123.721 588.927 123.175 589.268 122.842C592.333 119.859 600.303 122.65 606.741 126.257C607.084 126.449 607.254 126.848 607.155 127.228C607.055 127.608 606.712 127.873 606.319 127.872H606.327Z" fill="#E57E25"/>
<path d="M626.783 150.612C626.503 150.612 626.24 150.475 626.078 150.246C625.917 150.016 625.877 149.722 625.972 149.458C626.785 147.197 624.123 142.587 619.189 137.713C618.86 137.377 618.861 136.838 619.191 136.503C619.522 136.169 620.06 136.161 620.401 136.486C625.977 141.995 628.666 147.063 627.594 150.041C627.471 150.383 627.147 150.611 626.783 150.612V150.612Z" fill="#E57E25"/>
<path d="M601.104 162.103H598.517C598.041 162.103 597.655 161.717 597.655 161.241C597.655 160.765 598.041 160.379 598.517 160.379H601.104C601.58 160.379 601.966 160.765 601.966 161.241C601.966 161.717 601.58 162.103 601.104 162.103Z" fill="#7F8284"/>
<path d="M617.483 162.103H614.897C614.421 162.103 614.035 161.717 614.035 161.241C614.035 160.765 614.421 160.379 614.897 160.379H617.483C617.959 160.379 618.345 160.765 618.345 161.241C618.345 161.717 617.959 162.103 617.483 162.103Z" fill="#7F8284"/>
<path d="M623.448 139.466C623.107 143.001 621.557 146.31 619.06 148.836C616.436 151.435 614.94 154.962 614.897 158.655H601.103C601.097 156.828 600.719 155.021 599.991 153.345C599.262 151.666 598.227 150.137 596.94 148.836C592.968 144.808 591.507 138.935 593.128 133.515C594.749 128.096 599.193 123.989 604.724 122.802C605.122 122.72 605.41 122.372 605.414 121.966V121.586C605.414 120.158 606.572 119 608 119C609.428 119 610.586 120.158 610.586 121.586V121.966C610.59 122.372 610.878 122.72 611.276 122.802C618.974 124.463 624.207 131.627 623.448 139.466V139.466Z" fill="#F0C419"/>
<path d="M620.692 139.466C620.458 142.88 619.202 146.146 617.086 148.836C614.863 151.625 613.657 155.089 613.666 158.655H602.335C602.333 156.846 602.024 155.05 601.421 153.345C600.846 151.711 599.999 150.186 598.914 148.836C596.798 146.146 595.542 142.88 595.309 139.466C594.685 131.371 599.176 124.397 605.309 122.802C605.663 122.68 605.894 122.339 605.875 121.966V121.586C605.759 120.289 606.705 119.137 608 119C608.59 119.013 609.141 119.292 609.502 119.759C609.913 120.278 610.133 120.924 610.125 121.586V121.966C610.106 122.339 610.337 122.68 610.692 122.802C616.824 124.397 621.315 131.371 620.692 139.466V139.466Z" fill="#F3D55B"/>
<path d="M614.897 158.655V163.828C614.894 164.779 614.124 165.549 613.172 165.552H602.828C601.877 165.549 601.106 164.779 601.104 163.828V158.655H614.897Z" fill="#95A5A5"/>
<path d="M612.31 165.983C612.31 167.647 610.379 169 608 169C605.62 169 603.689 167.647 603.689 165.983C603.689 165.838 603.706 165.693 603.741 165.552H612.258C612.293 165.693 612.31 165.838 612.31 165.983Z" fill="#393F4A"/>
<path d="M593.126 152.621C591.863 152.69 590.612 152.339 589.57 151.621C589.31 151.437 589.173 151.126 589.212 150.811C589.251 150.495 589.46 150.227 589.756 150.113C590.053 149.998 590.388 150.056 590.629 150.263C591.865 151.226 594.642 151.095 598.247 149.905C601.506 148.786 604.628 147.301 607.552 145.478C608.687 144.789 609.794 144.066 610.854 143.334C615.095 140.466 618.93 137.037 622.255 133.143C625.067 129.716 626.468 126.658 626.003 124.96C625.881 124.502 626.151 124.032 626.609 123.907C627.066 123.782 627.538 124.049 627.666 124.505C628.474 127.456 625.895 131.426 623.589 134.236C620.162 138.255 616.208 141.792 611.835 144.753C610.751 145.503 609.613 146.243 608.449 146.953C605.411 148.844 602.168 150.384 598.782 151.545C596.963 152.189 595.055 152.551 593.126 152.621V152.621Z" fill="#F29C1F"/>
<path d="M622.87 152.628C620.94 152.562 619.031 152.196 617.213 151.543C613.83 150.382 610.589 148.843 607.552 146.953C606.387 146.242 605.248 145.503 604.164 144.752C599.791 141.791 595.837 138.253 592.41 134.235C590.076 131.39 587.479 127.38 588.358 124.425C588.497 123.972 588.975 123.715 589.429 123.85C589.883 123.985 590.143 124.461 590.011 124.916C589.51 126.605 590.906 129.68 593.746 133.141C597.07 137.036 600.905 140.464 605.145 143.334C606.202 144.066 607.313 144.788 608.449 145.479C611.372 147.301 614.491 148.785 617.748 149.903C621.523 151.149 624.437 151.225 625.546 150.107C625.882 149.769 626.428 149.767 626.766 150.103C627.103 150.439 627.105 150.985 626.77 151.322C625.698 152.264 624.293 152.735 622.87 152.628V152.628Z" fill="#F29C1F"/>
<path d="M589.465 153.483C591.132 153.483 592.483 152.132 592.483 150.465C592.483 148.799 591.132 147.448 589.465 147.448C587.799 147.448 586.448 148.799 586.448 150.465C586.448 152.132 587.799 153.483 589.465 153.483Z" fill="#3B97D3"/>
<path d="M589.465 126.758C591.132 126.758 592.483 125.407 592.483 123.741C592.483 122.074 591.132 120.724 589.465 120.724C587.799 120.724 586.448 122.074 586.448 123.741C586.448 125.407 587.799 126.758 589.465 126.758Z" fill="#3B97D3"/>
<path d="M626.534 153.483C628.201 153.483 629.552 152.132 629.552 150.465C629.552 148.799 628.201 147.448 626.534 147.448C624.868 147.448 623.517 148.799 623.517 150.465C623.517 152.132 624.868 153.483 626.534 153.483Z" fill="#3B97D3"/>
<path d="M626.534 126.758C628.201 126.758 629.552 125.407 629.552 123.741C629.552 122.074 628.201 120.724 626.534 120.724C624.868 120.724 623.517 122.074 623.517 123.741C623.517 125.407 624.868 126.758 626.534 126.758Z" fill="#3B97D3"/>
<path d="M597.211 133.434C596.912 133.434 596.635 133.279 596.478 133.024C596.321 132.77 596.307 132.453 596.44 132.185C598.059 128.943 600.964 126.53 604.448 125.533C604.748 125.437 605.076 125.513 605.304 125.729C605.532 125.946 605.623 126.27 605.543 126.574C605.463 126.878 605.224 127.114 604.919 127.191C601.901 128.056 599.384 130.148 597.983 132.957C597.837 133.249 597.538 133.434 597.211 133.434Z" fill="white"/>
</g>
<g filter="url(#filter2_d_28_2186)">
<rect x="70" y="45" width="80" height="80" rx="10" fill="white"/>
</g>
<g clip-path="url(#clip1_28_2186)">
<path d="M92.4139 86.1465H90.0173C89.605 86.1472 89.2509 86.4399 89.1725 86.8448L85.3967 106.224C85.2987 106.73 85.4324 107.254 85.7612 107.651C86.09 108.048 86.5793 108.277 87.0949 108.276H105.69C105.69 109.224 107.621 110 110 110C112.379 110 114.31 109.224 114.31 108.276H132.905C133.421 108.277 133.91 108.048 134.239 107.651C134.568 107.254 134.702 106.73 134.604 106.224L130.828 86.8448C130.749 86.4399 130.395 86.1472 129.983 86.1465H92.4139Z" fill="#E64C3C"/>
<path d="M110 88.6548V104.827C108.739 104.279 107.424 103.863 106.078 103.586C100.958 102.473 95.6351 102.744 90.6552 104.37C90.369 104.458 90.058 104.392 89.832 104.195C89.606 103.999 89.4969 103.7 89.5432 103.405L92.4139 86.1462L92.6552 84.6893C92.717 84.3196 93.0089 84.0311 93.3794 83.9738C93.9656 83.8876 94.569 83.8014 95.1725 83.7324C96.2259 85.7802 98.3352 87.0677 100.638 87.0686C100.793 87.0686 100.94 87.06 101.086 87.0514C101.66 87.0066 102.226 86.8848 102.767 86.6893C102.769 86.7076 102.775 86.7253 102.785 86.741C103.43 88.5477 105.142 89.7526 107.06 89.7497C108.141 89.7532 109.185 89.3642 110 88.6548Z" fill="#F5EFCA"/>
<path d="M129.345 104.37C124.365 102.744 119.042 102.473 113.922 103.586C112.576 103.863 111.261 104.279 110 104.827V88.6547C110.181 88.5065 110.349 88.342 110.5 88.1633C111.361 88.5059 112.28 88.6815 113.207 88.6806H113.259C113.303 89.297 113.538 89.8843 113.931 90.3616C114.768 91.1888 115.814 91.7728 116.957 92.0513C117.786 92.3161 118.526 92.8054 119.095 93.4651C119.602 94.0928 120.46 94.3136 121.207 94.0082C121.864 93.7242 122.291 93.0776 122.293 92.3616C122.294 92.1743 122.265 91.988 122.207 91.8099C122.121 91.5426 122.026 91.2754 121.914 91.0168C121.698 90.4826 121.414 89.9785 121.069 89.5168C122.779 88.5921 123.979 86.9447 124.336 85.034C124.362 84.9995 124.397 84.965 124.422 84.9306C124.717 84.5835 124.959 84.1941 125.138 83.7754C125.638 83.8357 126.129 83.8961 126.621 83.9737C126.991 84.031 127.283 84.3195 127.345 84.6892L127.586 86.1461L130.457 103.405C130.503 103.7 130.394 103.999 130.168 104.195C129.942 104.391 129.631 104.458 129.345 104.37Z" fill="#F9EAB0"/>
<path d="M114.311 108.276C114.311 109.224 112.38 110 110 110C107.621 110 105.69 109.224 105.69 108.276L106.078 103.586C107.425 103.864 108.739 104.28 110 104.827C111.261 104.28 112.576 103.864 113.923 103.586L114.311 108.276Z" fill="#C03A2B"/>
<path d="M125.517 81.9743C125.517 82.5947 125.387 83.2081 125.138 83.7761C124.959 84.1948 124.718 84.5842 124.423 84.9312C124.397 84.9657 124.362 85.0002 124.336 85.0347C123.98 86.9454 122.779 88.5928 121.069 89.5174C121.414 89.9792 121.698 90.4833 121.914 91.0174C122.026 91.2761 122.121 91.5433 122.207 91.8106C122.265 91.9887 122.294 92.1749 122.293 92.3623C122.291 93.0783 121.864 93.7249 121.207 94.0088C120.46 94.3143 119.602 94.0935 119.095 93.4657C118.527 92.8061 117.787 92.3168 116.957 92.0519C115.814 91.7735 114.768 91.1894 113.931 90.3623C113.539 89.885 113.304 89.2977 113.259 88.6812H113.207C112.28 88.6821 111.362 88.5066 110.5 88.164C110.349 88.3427 110.181 88.5072 110 88.6554C109.185 89.3647 108.141 89.7538 107.061 89.7502C105.142 89.7532 103.43 88.5482 102.785 86.7416C102.775 86.7259 102.769 86.7082 102.767 86.6899C102.226 86.8854 101.66 87.0071 101.086 87.0519C100.94 87.0605 100.793 87.0692 100.638 87.0692C98.3082 87.0675 96.1786 85.7514 95.1351 83.6681C94.0917 81.5849 94.313 79.0912 95.7071 77.2243C95.6034 76.9428 95.5509 76.645 95.5519 76.345C95.5467 75.071 96.4416 73.9705 97.6899 73.7157C97.6945 73.711 97.7006 73.708 97.7071 73.7071C97.6985 73.6037 97.6899 73.5002 97.6899 73.3881C97.6887 72.91 97.7886 72.437 97.983 72.0002C98.533 70.7281 99.7867 69.9047 101.173 69.9054C101.695 69.9029 102.212 70.0209 102.681 70.2502C103.599 68.705 105.263 67.7582 107.061 67.7588C108.294 67.7543 109.485 68.2057 110.405 69.0261C110.934 68.1736 111.895 67.6889 112.895 67.7707C113.894 67.8524 114.764 68.487 115.147 69.414C115.393 69.3865 115.64 69.3721 115.888 69.3709C119.228 69.3764 122.008 71.9388 122.285 75.2674H122.311C123.021 75.2674 123.702 75.5502 124.203 76.0532C124.705 76.5563 124.985 77.2382 124.983 77.9485C124.981 78.4129 124.863 78.8695 124.638 79.2761C125.21 80.0594 125.518 81.0044 125.517 81.9743Z" fill="#FB7B76"/>
<path d="M110 62.5862C109.524 62.5862 109.138 62.2002 109.138 61.7241V60.8621C109.138 60.386 109.524 60 110 60C110.476 60 110.862 60.386 110.862 60.8621V61.7241C110.862 62.2002 110.476 62.5862 110 62.5862Z" fill="#F0C419"/>
<path d="M123.894 68.5197C123.546 68.5196 123.231 68.3096 123.098 67.9875C122.964 67.6654 123.038 67.2947 123.285 67.0481L124.147 66.1861C124.363 65.962 124.684 65.8721 124.985 65.951C125.286 66.0299 125.522 66.2652 125.601 66.5666C125.68 66.8681 125.59 67.1886 125.366 67.405L124.504 68.2671C124.342 68.4288 124.123 68.5196 123.894 68.5197Z" fill="#F0C419"/>
<path d="M96.1063 68.5197C95.8777 68.5196 95.6585 68.4288 95.4969 68.2671L94.6348 67.405C94.4107 67.1886 94.3208 66.8681 94.3997 66.5666C94.4786 66.2652 94.714 66.0299 95.0154 65.951C95.3168 65.8721 95.6373 65.962 95.8537 66.1861L96.7158 67.0481C96.9623 67.2947 97.036 67.6654 96.9026 67.9875C96.7692 68.3096 96.455 68.5196 96.1063 68.5197Z" fill="#F0C419"/>
<path d="M102.743 64.8916C102.394 64.8917 102.08 64.6818 101.946 64.3597L100.956 61.9701C100.831 61.6841 100.869 61.3525 101.057 61.1032C101.246 60.854 101.554 60.7261 101.864 60.7689C102.173 60.8118 102.435 61.0187 102.549 61.3097L103.539 63.6994C103.627 63.9107 103.627 64.1483 103.54 64.3599C103.452 64.5714 103.284 64.7394 103.073 64.827C102.968 64.8697 102.856 64.8916 102.743 64.8916Z" fill="#F0C419"/>
<path d="M117.258 64.8916C117.145 64.8914 117.032 64.8691 116.928 64.8261C116.716 64.7386 116.549 64.5707 116.461 64.3593C116.374 64.148 116.374 63.9106 116.461 63.6994L117.452 61.3097C117.565 61.0187 117.827 60.8118 118.137 60.7689C118.446 60.7261 118.755 60.854 118.943 61.1032C119.131 61.3525 119.17 61.6841 119.044 61.9701L118.054 64.3597C117.921 64.6818 117.606 64.8917 117.258 64.8916Z" fill="#F0C419"/>
<path d="M127.522 75.1571C127.109 75.1583 126.754 74.8676 126.673 74.4632C126.593 74.0589 126.81 73.6542 127.191 73.4976L129.581 72.5079C129.866 72.3901 130.191 72.4331 130.436 72.6207C130.68 72.8082 130.806 73.1119 130.765 73.4172C130.725 73.7226 130.525 73.9832 130.24 74.101L127.852 75.0907C127.747 75.1343 127.635 75.1569 127.522 75.1571Z" fill="#F0C419"/>
<path d="M92.4784 75.1571C92.365 75.1569 92.2528 75.1343 92.1482 75.0907L89.7594 74.101C89.4748 73.9832 89.2747 73.7226 89.2345 73.4172C89.1942 73.1118 89.3199 72.8082 89.5642 72.6207C89.8085 72.4331 90.1343 72.3901 90.4189 72.5079L92.8086 73.4976C93.1899 73.6542 93.407 74.0589 93.3265 74.4632C93.2461 74.8676 92.8906 75.1583 92.4784 75.1571Z" fill="#F0C419"/>
<path d="M124.422 84.9312C124.397 84.9657 124.362 85.0002 124.336 85.0347C124.184 85.8649 123.868 86.6563 123.405 87.3623C122.954 87.4904 122.486 87.5542 122.017 87.5519C121.163 87.5495 120.321 87.3457 119.56 86.9571C119.2 86.7643 118.862 86.5331 118.552 86.2674C118.208 86.4006 117.843 86.4707 117.474 86.4743C116.335 86.4802 115.292 85.8383 114.784 84.8191C114.646 84.5435 114.665 84.2148 114.834 83.957C115.004 83.6991 115.298 83.5513 115.606 83.5691C115.914 83.5869 116.189 83.7676 116.328 84.0433C116.498 84.3701 116.799 84.6088 117.157 84.6994C117.514 84.7899 117.893 84.7237 118.198 84.5174C118.543 84.2821 118.749 83.8918 118.75 83.4743C118.751 83.2745 118.707 83.0769 118.621 82.8967C118.447 82.4799 118.625 81.9997 119.027 81.796C119.43 81.5923 119.922 81.734 120.155 82.1209C120.365 82.5412 120.474 83.0046 120.474 83.4743C120.467 84.0767 120.278 84.6628 119.931 85.1553C120.069 85.2502 120.207 85.345 120.345 85.4226C120.862 85.6889 121.435 85.8278 122.017 85.8278C122.901 85.8327 123.757 85.5138 124.422 84.9312Z" fill="#FF5364"/>
<path d="M113.879 81.5462C114.996 80.7768 115.764 79.5977 116.016 78.2652C116.08 77.9601 115.975 77.6442 115.74 77.4389C115.506 77.2336 115.178 77.171 114.885 77.2751C114.591 77.3792 114.376 77.6338 114.323 77.941C114.154 78.8302 113.641 79.6167 112.895 80.1298C111.461 81.0958 109.538 80.8766 108.358 79.6126C108.036 79.2603 107.49 79.235 107.138 79.5561C106.786 79.8773 106.761 80.4232 107.082 80.7755C107.813 81.5829 108.779 82.1402 109.845 82.3686C109.362 83.0474 108.579 83.4498 107.746 83.4479C107.27 83.4479 106.884 83.8339 106.884 84.31C106.884 84.7861 107.27 85.1721 107.746 85.1721C109.531 85.1792 111.132 84.077 111.763 82.4074C112.523 82.281 113.246 81.9868 113.879 81.5462Z" fill="#FF5364"/>
<path d="M121.914 91.0176C121.28 91.3409 120.599 91.5621 119.897 91.6728C119.851 91.6799 119.805 91.6828 119.759 91.6814C119.305 91.6856 118.925 91.3369 118.891 90.8841C118.857 90.4314 119.18 90.0298 119.629 89.9659C120.129 89.8902 120.615 89.7391 121.069 89.5176C121.414 89.9793 121.698 90.4834 121.914 91.0176Z" fill="#FF5364"/>
<path d="M102.707 85.0001C102.663 85.242 102.64 85.4871 102.638 85.7329C102.636 86.0563 102.68 86.3784 102.767 86.6898C102.226 86.8853 101.66 87.007 101.086 87.0518C100.976 86.6295 100.918 86.1952 100.914 85.7587C99.3951 85.5931 98.2441 84.3121 98.2412 82.7846C98.2383 82.3045 98.6232 81.9119 99.1033 81.9053C99.3309 81.9039 99.5496 81.9931 99.7113 82.1532C99.8731 82.3133 99.9645 82.5312 99.9654 82.7587V82.7846C99.9783 83.4658 100.518 84.0202 101.198 84.0518C101.317 83.663 101.482 83.2897 101.69 82.9398C101.805 82.7421 101.996 82.5995 102.218 82.5443C102.441 82.4891 102.676 82.5261 102.871 82.6467C103.276 82.8972 103.406 83.4261 103.164 83.8363C102.945 84.1947 102.79 84.5885 102.707 85.0001Z" fill="#FF5364"/>
<path d="M115.526 90.0428C115.008 90.2085 114.473 90.3155 113.931 90.3618C113.538 89.8845 113.303 89.2972 113.258 88.6807C113.342 88.6823 113.425 88.6795 113.508 88.6721C114.02 88.6396 114.527 88.5471 115.017 88.3963C115.314 88.2943 115.644 88.3622 115.876 88.5735C116.109 88.7849 116.208 89.1061 116.135 89.4118C116.062 89.7176 115.829 89.9593 115.526 90.0428Z" fill="#FF5364"/>
<path d="M108.103 74.655C108.103 74.1789 107.718 73.793 107.241 73.793C105.052 73.7953 103.278 75.5694 103.276 77.7585C103.276 78.2346 103.662 78.6206 104.138 78.6206C104.614 78.6206 105 78.2346 105 77.7585C105 77.164 105.236 76.5939 105.657 76.1736C106.077 75.7533 106.647 75.5171 107.241 75.5171C107.718 75.5171 108.103 75.1311 108.103 74.655Z" fill="#FF5364"/>
<path d="M96.8516 79.5026C96.6951 79.5028 96.5415 79.4598 96.4077 79.3785C95.6968 78.9495 95.159 78.2847 94.8878 77.5C94.7567 77.1269 94.6899 76.7343 94.6904 76.3388C94.6904 74.3851 96.2712 72.7997 98.2249 72.794C99.3444 72.7897 100.398 73.3213 101.06 74.2241C101.244 74.4715 101.282 74.798 101.159 75.0808C101.037 75.3635 100.773 75.5595 100.467 75.595C100.161 75.6304 99.8595 75.4999 99.6758 75.2526C99.3379 74.7916 98.8 74.5199 98.2284 74.5216C97.4124 74.5261 96.699 75.0728 96.4824 75.8595C96.2658 76.6462 96.5987 77.4809 97.2973 77.9026C97.6295 78.1023 97.7875 78.4992 97.6836 78.8726C97.5796 79.246 97.2392 79.5041 96.8516 79.5035V79.5026Z" fill="#FF5364"/>
<path d="M115.351 71.3029C114.875 71.3029 114.489 70.9169 114.489 70.4408C114.489 69.4393 113.677 68.6275 112.675 68.6275C111.674 68.6275 110.862 69.4393 110.862 70.4408C110.862 70.9169 110.476 71.3029 110 71.3029C109.524 71.3029 109.138 70.9169 109.138 70.4408C109.138 68.4871 110.721 66.9033 112.675 66.9033C114.629 66.9033 116.213 68.4871 116.213 70.4408C116.213 70.6695 116.122 70.8887 115.96 71.0504C115.799 71.2121 115.579 71.3029 115.351 71.3029Z" fill="#FF5364"/>
<path d="M123.437 81.2429C123.037 81.239 122.692 80.96 122.604 80.5695C122.517 80.1789 122.71 79.7794 123.07 79.6049C123.413 79.4435 123.699 79.1797 123.886 78.8498C124.325 78.1024 124.172 77.149 123.522 76.5758C122.872 76.0026 121.907 75.9704 121.221 76.4989C120.84 76.7846 120.299 76.7074 120.014 76.3265C119.728 75.9456 119.805 75.4053 120.186 75.1196C120.789 74.6629 121.524 74.4137 122.281 74.4093C123.947 74.398 125.395 75.548 125.762 77.1726C126.129 78.7973 125.315 80.4582 123.806 81.1636C123.691 81.2173 123.564 81.2444 123.437 81.2429Z" fill="#FF5364"/>
</g>
<g filter="url(#filter3_d_28_2186)">
<rect x="658" y="599" width="80" height="80" rx="10" fill="white"/>
</g>
<g clip-path="url(#clip2_28_2186)">
<path d="M718.463 663.999H703.647C701.418 663.999 699.61 662.191 699.61 659.962V645.146C699.61 642.917 701.418 641.109 703.647 641.109H718.463C720.692 641.109 722.5 642.917 722.5 645.146V659.962C722.5 662.191 720.692 663.999 718.463 663.999Z" fill="#BDF4E3"/>
<path d="M717.15 660.433H704.96C703.976 660.433 703.177 659.635 703.177 658.65V646.461C703.177 645.476 703.976 644.678 704.96 644.678H717.15C718.134 644.678 718.933 645.476 718.933 646.461V658.65C718.933 659.635 718.134 660.433 717.15 660.433Z" fill="#FFDCB6"/>
<path d="M718.463 641.109H714.095C715.808 641.109 717.197 642.498 717.197 644.211V655.594C717.197 657.307 715.808 658.696 714.095 658.696H702.712C700.999 658.696 699.611 657.307 699.611 655.594V659.962C699.611 662.191 701.418 663.999 703.648 663.999H718.463C720.693 663.999 722.5 662.191 722.5 659.962V645.146C722.5 642.917 720.693 641.109 718.463 641.109Z" fill="#B1B7E3"/>
<path d="M717.197 644.68V655.595C717.197 657.308 715.808 658.696 714.095 658.696H703.18C703.205 659.659 703.992 660.433 704.961 660.433H717.15C718.135 660.433 718.933 659.634 718.933 658.65V646.46C718.933 645.491 718.16 644.705 717.197 644.68Z" fill="#EFA5B6"/>
<path d="M715.526 641.088H700.711C698.481 641.088 696.674 639.28 696.674 637.051V622.235C696.674 620.006 698.481 618.198 700.711 618.198H715.526C717.756 618.198 719.563 620.006 719.563 622.235V637.051C719.563 639.28 717.756 641.088 715.526 641.088Z" fill="#EF8BBD"/>
<path d="M714.213 637.52H702.024C701.04 637.52 700.241 636.722 700.241 635.737V623.548C700.241 622.563 701.04 621.765 702.024 621.765H714.213C715.198 621.765 715.996 622.563 715.996 623.548V635.737C715.996 636.722 715.198 637.52 714.213 637.52Z" fill="#FFDCB6"/>
<path d="M715.526 618.198H711.158C712.871 618.198 714.26 619.587 714.26 621.3V632.683C714.26 634.396 712.871 635.784 711.158 635.784H699.775C698.063 635.784 696.674 634.396 696.674 632.683V637.051C696.674 639.28 698.481 641.088 700.711 641.088H715.526C717.756 641.088 719.563 639.28 719.563 637.051V622.235C719.563 620.006 717.756 618.198 715.526 618.198Z" fill="#E068BD"/>
<path d="M714.26 621.768V632.683C714.26 634.396 712.872 635.784 711.159 635.784H700.242C700.267 636.747 701.055 637.521 702.024 637.521H714.213C715.198 637.521 715.996 636.722 715.996 635.737V623.548C715.996 622.579 715.223 621.793 714.26 621.768Z" fill="#EFA5B6"/>
<path d="M692.353 663.999H677.537C675.307 663.999 673.5 662.191 673.5 659.962V645.146C673.5 642.917 675.307 641.109 677.537 641.109H692.353C694.582 641.109 696.39 642.917 696.39 645.146V659.962C696.389 662.191 694.582 663.999 692.353 663.999Z" fill="#CAB4EF"/>
<path d="M691.039 660.431H678.85C677.865 660.431 677.067 659.633 677.067 658.648V646.459C677.067 645.474 677.865 644.676 678.85 644.676H691.039C692.024 644.676 692.822 645.474 692.822 646.459V658.648C692.822 659.633 692.024 660.431 691.039 660.431Z" fill="#FFDCB6"/>
<path d="M692.354 641.109H687.985C689.698 641.109 691.087 642.498 691.087 644.211V655.594C691.087 657.307 689.698 658.696 687.985 658.696H676.603C674.89 658.696 673.501 657.307 673.501 655.594V659.962C673.501 662.191 675.308 663.999 677.538 663.999H692.354C694.583 663.999 696.39 662.192 696.39 659.962V645.146C696.39 642.917 694.583 641.109 692.354 641.109Z" fill="#BE87EF"/>
<path d="M691.086 644.679V655.594C691.086 657.307 689.697 658.695 687.984 658.695H677.069C677.094 659.658 677.881 660.432 678.85 660.432H691.039C692.024 660.432 692.822 659.633 692.822 658.648V646.459C692.822 645.49 692.049 644.704 691.086 644.679Z" fill="#EFA5B6"/>
<path d="M679.743 652.878C679.203 652.878 678.766 652.441 678.766 651.901V650.694C678.766 650.155 679.203 649.718 679.743 649.718C680.282 649.718 680.719 650.155 680.719 650.694V651.901C680.719 652.441 680.282 652.878 679.743 652.878Z" fill="white"/>
<path d="M679.743 648.815C679.203 648.815 678.766 648.378 678.766 647.838V647.396C678.766 646.856 679.203 646.419 679.743 646.419C680.282 646.419 680.719 646.856 680.719 647.396V647.838C680.719 648.378 680.282 648.815 679.743 648.815Z" fill="white"/>
<path d="M712.082 658.64C711.563 658.606 711.171 658.152 711.171 657.632V648.421H709.996C709.476 648.421 709.022 648.028 708.988 647.509C708.952 646.941 709.402 646.468 709.963 646.468H712.238C712.727 646.468 713.124 646.864 713.124 647.354V657.666C713.124 658.226 712.651 658.677 712.082 658.64Z" fill="#D58A9C"/>
<path d="M707.644 635.833C705.684 635.833 705.54 635.784 705.408 635.741C705.083 635.632 704.84 635.386 704.741 635.066C704.571 634.513 704.81 634.201 705.447 633.367C705.967 632.686 706.934 631.419 708.556 629.102C709.038 628.413 709.349 627.796 709.48 627.267L709.515 626.993C709.486 626.115 708.763 625.409 707.878 625.409C707.096 625.409 706.42 625.964 706.269 626.729C706.165 627.258 705.652 627.603 705.123 627.499C704.594 627.395 704.249 626.882 704.353 626.353C704.683 624.674 706.165 623.456 707.878 623.456C709.858 623.456 711.469 625.067 711.469 627.048V627.11L711.405 627.616L711.394 627.664C711.212 628.448 710.796 629.308 710.156 630.222C708.942 631.957 708.088 633.113 707.512 633.877C708.476 633.874 709.736 633.869 710.914 633.854C710.918 633.854 710.922 633.854 710.926 633.854C711.46 633.854 711.896 634.283 711.903 634.818C711.909 635.357 711.478 635.8 710.938 635.807C709.481 635.825 708.42 635.833 707.644 635.833Z" fill="#D58A9C"/>
<path d="M684.945 653.531C684.406 653.531 683.968 653.094 683.968 652.555C683.968 652.016 684.406 651.578 684.945 651.578C685.849 651.578 686.584 650.843 686.584 649.939C686.584 649.036 685.849 648.301 684.945 648.301C684.163 648.301 683.487 648.856 683.337 649.621C683.233 650.15 682.72 650.495 682.19 650.391C681.661 650.287 681.316 649.774 681.42 649.245C681.75 647.566 683.232 646.348 684.945 646.348C686.926 646.348 688.537 647.959 688.537 649.94C688.537 651.92 686.926 653.531 684.945 653.531Z" fill="#D58A9C"/>
<path d="M684.945 658.762C683.163 658.762 681.633 657.433 681.388 655.67C681.365 655.505 681.353 655.337 681.353 655.17C681.353 654.631 681.79 654.193 682.33 654.193C682.869 654.193 683.306 654.631 683.306 655.17C683.306 655.247 683.312 655.324 683.322 655.4C683.434 656.203 684.132 656.809 684.945 656.809C685.849 656.809 686.584 656.074 686.584 655.17C686.584 654.266 685.849 653.531 684.945 653.531C684.406 653.531 683.968 653.094 683.968 652.555C683.968 652.015 684.406 651.578 684.945 651.578C686.926 651.578 688.537 653.189 688.537 655.17C688.537 657.151 686.926 658.762 684.945 658.762Z" fill="#D58A9C"/>
<path d="M690.237 614.253L691.087 616.643C691.123 616.746 691.196 616.827 691.286 616.868L693.41 617.825C693.71 617.96 693.71 618.438 693.41 618.573L691.286 619.53C691.196 619.571 691.123 619.652 691.087 619.754L690.237 622.145C690.117 622.482 689.692 622.482 689.572 622.145L688.722 619.754C688.685 619.652 688.613 619.571 688.522 619.53L686.399 618.573C686.099 618.438 686.099 617.96 686.399 617.825L688.522 616.868C688.613 616.827 688.685 616.746 688.722 616.643L689.572 614.253C689.692 613.916 690.117 613.916 690.237 614.253Z" fill="#F7C4DB"/>
<path d="M679.576 635.02C679.969 634.073 679.519 632.987 678.572 632.594C677.625 632.202 676.539 632.651 676.146 633.598C675.753 634.546 676.203 635.632 677.15 636.024C678.097 636.417 679.184 635.967 679.576 635.02Z" fill="#EF8BBD"/>
<path d="M681.812 621.892C681.882 621.463 681.591 621.06 681.162 620.99C680.734 620.921 680.33 621.212 680.261 621.64C680.191 622.069 680.482 622.472 680.911 622.542C681.339 622.611 681.743 622.32 681.812 621.892Z" fill="#EF8BBD"/>
<path d="M685.192 628.813L685.822 630.586C685.849 630.662 685.903 630.722 685.97 630.752L687.545 631.462C687.768 631.562 687.768 631.917 687.545 632.017L685.97 632.727C685.903 632.757 685.849 632.818 685.822 632.893L685.192 634.666C685.103 634.917 684.788 634.917 684.698 634.666L684.068 632.893C684.041 632.818 683.987 632.757 683.92 632.727L682.345 632.017C682.122 631.917 682.122 631.562 682.345 631.462L683.92 630.752C683.987 630.722 684.041 630.662 684.068 630.586L684.698 628.813C684.787 628.562 685.102 628.562 685.192 628.813Z" fill="#F7C4DB"/>
</g>
<defs>
<filter id="filter0_d_28_2186" x="73" y="323" width="220" height="220" filterUnits="userSpaceOnUse" color-interpolation-filters="sRGB">
<feFlood flood-opacity="0" result="BackgroundImageFix"/>
<feColorMatrix in="SourceAlpha" type="matrix" values="0 0 0 0 0 0 0 0 0 0 0 0 0 0 0 0 0 0 127 0" result="hardAlpha"/>
<feOffset dy="25"/>
<feGaussianBlur stdDeviation="35"/>
<feColorMatrix type="matrix" values="0 0 0 0 0.0392157 0 0 0 0 0.0117647 0 0 0 0 0.235294 0 0 0 0.15 0"/>
<feBlend mode="normal" in2="BackgroundImageFix" result="effect1_dropShadow_28_2186"/>
<feBlend mode="normal" in="SourceGraphic" in2="effect1_dropShadow_28_2186" result="shape"/>
</filter>
<filter id="filter1_d_28_2186" x="498" y="59" width="220" height="220" filterUnits="userSpaceOnUse" color-interpolation-filters="sRGB">
<feFlood flood-opacity="0" result="BackgroundImageFix"/>
<feColorMatrix in="SourceAlpha" type="matrix" values="0 0 0 0 0 0 0 0 0 0 0 0 0 0 0 0 0 0 127 0" result="hardAlpha"/>
<feOffset dy="25"/>
<feGaussianBlur stdDeviation="35"/>
<feColorMatrix type="matrix" values="0 0 0 0 0.0392157 0 0 0 0 0.0117647 0 0 0 0 0.235294 0 0 0 0.15 0"/>
<feBlend mode="normal" in2="BackgroundImageFix" result="effect1_dropShadow_28_2186"/>
<feBlend mode="normal" in="SourceGraphic" in2="effect1_dropShadow_28_2186" result="shape"/>
</filter>
<filter id="filter2_d_28_2186" x="0" y="0" width="220" height="220" filterUnits="userSpaceOnUse" color-interpolation-filters="sRGB">
<feFlood flood-opacity="0" result="BackgroundImageFix"/>
<feColorMatrix in="SourceAlpha" type="matrix" values="0 0 0 0 0 0 0 0 0 0 0 0 0 0 0 0 0 0 127 0" result="hardAlpha"/>
<feOffset dy="25"/>
<feGaussianBlur stdDeviation="35"/>
<feColorMatrix type="matrix" values="0 0 0 0 0.0392157 0 0 0 0 0.0117647 0 0 0 0 0.235294 0 0 0 0.15 0"/>
<feBlend mode="normal" in2="BackgroundImageFix" result="effect1_dropShadow_28_2186"/>
<feBlend mode="normal" in="SourceGraphic" in2="effect1_dropShadow_28_2186" result="shape"/>
</filter>
<filter id="filter3_d_28_2186" x="588" y="554" width="220" height="220" filterUnits="userSpaceOnUse" color-interpolation-filters="sRGB">
<feFlood flood-opacity="0" result="BackgroundImageFix"/>
<feColorMatrix in="SourceAlpha" type="matrix" values="0 0 0 0 0 0 0 0 0 0 0 0 0 0 0 0 0 0 127 0" result="hardAlpha"/>
<feOffset dy="25"/>
<feGaussianBlur stdDeviation="35"/>
<feColorMatrix type="matrix" values="0 0 0 0 0.0392157 0 0 0 0 0.0117647 0 0 0 0 0.235294 0 0 0 0.15 0"/>
<feBlend mode="normal" in2="BackgroundImageFix" result="effect1_dropShadow_28_2186"/>
<feBlend mode="normal" in="SourceGraphic" in2="effect1_dropShadow_28_2186" result="shape"/>
</filter>
<linearGradient id="paint0_linear_28_2186" x1="442" y1="169.022" x2="442" y2="744" gradientUnits="userSpaceOnUse">
<stop stop-color="#FF6652" stop-opacity="0"/>
<stop offset="1" stop-color="#FF6652"/>
</linearGradient>
<clipPath id="clip0_28_2186">
<rect width="50" height="50" fill="white" transform="translate(583 119)"/>
</clipPath>
<clipPath id="clip1_28_2186">
<rect width="50" height="50" fill="white" transform="translate(85 60)"/>
</clipPath>
<clipPath id="clip2_28_2186">
<rect width="50" height="50" fill="white" transform="translate(673 614)"/>
</clipPath>
</defs>
</svg>
