<svg width="22" height="18" viewBox="0 0 22 18" fill="none" xmlns="http://www.w3.org/2000/svg">
<g clip-path="url(#clip0_28_444)">
<path d="M6.94632 17.5272C15.1934 17.5272 19.7034 10.8121 19.7034 4.98901C19.7034 4.79827 19.6994 4.60841 19.6907 4.4194C20.5662 3.79737 21.3271 3.02114 21.9272 2.1375C21.1239 2.48846 20.2594 2.72473 19.3524 2.83126C20.2781 2.2857 20.9888 1.4227 21.3241 0.393898C20.4578 0.898646 19.4984 1.2655 18.477 1.46356C17.6588 0.607024 16.494 0.0712891 15.2042 0.0712891C12.7282 0.0712891 10.7203 2.04478 10.7203 4.47738C10.7203 4.82318 10.7596 5.15954 10.8366 5.48218C7.11013 5.29789 3.8058 3.54437 1.59436 0.878024C1.2093 1.52925 0.987272 2.28572 0.987272 3.09289C0.987272 4.62175 1.77883 5.97143 2.98253 6.76101C2.24692 6.73867 1.5559 6.5402 0.951926 6.20986C0.951266 6.22835 0.951263 6.24638 0.951263 6.26614C0.951263 8.40028 2.49677 10.1821 4.54834 10.5859C4.17158 10.6868 3.77518 10.741 3.36606 10.741C3.07759 10.741 2.79655 10.7131 2.52338 10.6615C3.09419 12.4124 4.74941 13.6866 6.71182 13.7222C5.17724 14.9043 3.24411 15.6084 1.14311 15.6084C0.781645 15.6084 0.42456 15.5882 0.0736084 15.5474C2.05794 16.7975 4.41414 17.5269 6.94656 17.5269" fill="#0A033C"/>
</g>
<defs>
<clipPath id="clip0_28_444">
<rect width="22" height="17.6" fill="white"/>
</clipPath>
</defs>
</svg>
